<?xml version="1.0" encoding="UTF-8"?>
<svg xmlns="http://www.w3.org/2000/svg" viewBox="0 0 2566.33 1875.33">
  <defs>
    <style>
      .cls-1 {
        fill: #28353c;
      }

      .cls-1, .cls-2, .cls-3, .cls-4, .cls-5, .cls-6, .cls-7, .cls-8, .cls-9, .cls-10, .cls-11, .cls-12, .cls-13, .cls-14, .cls-15, .cls-16, .cls-17, .cls-18, .cls-19, .cls-20 {
        stroke-width: 0px;
      }

      .cls-21 {
        opacity: .5;
      }

      .cls-2 {
        fill: #34424d;
      }

      .cls-3 {
        fill: #1f2e3b;
      }

      .cls-4 {
        fill: #db704b;
      }

      .cls-5 {
        fill: #ececec;
      }

      .cls-22 {
        isolation: isolate;
      }

      .cls-23 {
        opacity: .2;
      }

      .cls-6 {
        fill: #545353;
      }

      .cls-7 {
        fill: #1a2428;
      }

      .cls-8 {
        fill: #f9fcfb;
      }

      .cls-9 {
        fill: #c4c5c6;
      }

      .cls-24 {
        fill: none;
        stroke: #28353c;
        stroke-miterlimit: 10;
      }

      .cls-10 {
        fill: #fff;
      }

      .cls-25, .cls-26 {
        opacity: .3;
      }

      .cls-26 {
        mix-blend-mode: multiply;
      }

      .cls-11 {
        fill: #fbca51;
      }

      .cls-12 {
        fill: #f2f4f4;
      }

      .cls-13 {
        fill: #06090a;
      }

      .cls-14 {
        fill: #c6c6c6;
      }

      .cls-15 {
        fill: #ebb22b;
      }

      .cls-16 {
        fill: #e06d3f;
      }

      .cls-17 {
        fill: #191919;
      }

      .cls-18 {
        fill: #bbbebf;
      }

      .cls-19 {
        fill: #f29e79;
      }

      .cls-20 {
        fill: #d8d8d8;
      }
    </style>
  </defs>
  <g class="cls-22">
    <g id="Layer_4" data-name="Layer 4">
      <g class="cls-21">
        <polygon class="cls-6" points="172.04 1758.46 146.11 1758.46 133.38 1679.31 184.44 1679.31 172.04 1758.46"/>
        <polygon class="cls-6" points="1431.58 1758.46 1405.65 1758.46 1392.92 1679.31 1443.98 1679.31 1431.58 1758.46"/>
        <polygon class="cls-6" points="277.65 1755.03 255.36 1755.03 244.41 1683.66 288.32 1683.66 277.65 1755.03"/>
        <polygon class="cls-6" points="1343.32 1740.87 1323.15 1740.87 1313.24 1679.31 1352.96 1679.31 1343.32 1740.87"/>
        <path class="cls-20" d="m110.03,1281.54c-12.09,1.29-11.79-90.14-10.61-97.09,5.96-35.15,27.06-66.58,56.99-85.85,38.88-25.03,85.3-17.63,129.53-17.95,106.91-.76,213.82-1.51,320.74-2.27,238.29-1.69,476.59-3.28,714.88-5.17,104.35-.82,141.91,127.18,113.02,208.33,35.21,4.8,74.55,4.6,98.75,34.96,11.71,14.7,17.24,34.62,12.94,52.92-4.3,18.3-19.03,34.2-37.39,38.19.73,79.74,1.01,159.48,1.46,239.22,0,0-14.88,40.59-48.71,36.53,0,0-1328.6.29-1328.6.29-9.92,0-19.84,0-29.76,0-13.25,0-34.17,6.66-45.99-1.37-13.07-8.88-18.95-33.34-18.96-47.62,0-.01-.06-221.21-.06-221.88,0-1.52-11.83-9.42-13.19-10.69-8.84-8.33-16.8-18.14-21.53-29.41-13.37-31.91,13.15-75.86,45.71-84.67,18.91-5.11,41.24-4.39,60.77-6.46Z"/>
        <path class="cls-14" d="m149.23,1467.71l10.36-49.09h1.84s1204.51-4.52,1204.51-4.52l58.33,48.74-6.26.02-1268.79,4.84Zm14.06-44.54l-8.43,39.95,1256.88-4.8-47.45-39.65-1201,4.5Z"/>
        <path class="cls-14" d="m110.03,1281.54s49.16,28.41,50.96,85.24l-15.33,316.87h-17.14s1.8-309.66,1.8-309.66c0,0,.81-77.63-66.65-87.52l46.36-4.93Z"/>
        <path class="cls-14" d="m1434.57,1281.54s-67.65,57.28-69.45,134.84l47.8,39.69,7.22-87.27s-17.55-58.87,50.76-82.31l-36.33-4.95Z"/>
        <rect class="cls-14" x="150.77" y="1573.31" width="1267.24" height="10.69"/>
        <path class="cls-14" d="m1412.93,1456.07s5.22,214.26,9.68,226.37l1.37-219.83-11.05-6.54Z"/>
      </g>
      <g class="cls-23">
        <g>
          <rect class="cls-5" x="813.28" y="36.48" width="572.87" height="761.53"/>
          <g>
            <g>
              <path class="cls-9" d="m1367.32,174.05h-531.07l-1.1-81.06h531.07l1.1,81.06Zm-524.38-6.77h517.51l-.92-67.51h-517.51l.92,67.51Z"/>
              <g>
                <path class="cls-9" d="m1389.54,801.4h-579.65V33.1h579.65v768.31Zm-572.87-6.77h566.1V39.87h-566.1v754.76Z"/>
                <path class="cls-9" d="m1366.76,782h-531.07V50.15h531.07v731.84Zm-524.29-6.77h517.52V56.93h-517.52v718.29Z"/>
                <path class="cls-9" d="m1365.66,476.9h-531.07l2.21-81.06h531.07l-2.21,81.06Zm-524.11-6.77h517.51l1.84-67.51h-517.51l-1.84,67.51Z"/>
                <path class="cls-9" d="m1364.14,666.77h-531.07l2.21-81.06h531.07l-2.21,81.06Zm-524.11-6.77h517.51l1.84-67.51h-517.51l-1.84,67.51Z"/>
                <path class="cls-9" d="m1365.15,762.29h-531.07l2.21-81.06h531.07l-2.21,81.06Zm-524.11-6.77h517.51l1.84-67.51h-517.51l-1.84,67.51Z"/>
                <path class="cls-9" d="m1366.21,321.16h-531.07l1.1-81.06h531.07l-1.1,81.06Zm-524.2-6.77h517.51l.92-67.51h-517.51l-.92,67.51Z"/>
              </g>
            </g>
            <rect class="cls-9" x="939.95" y="53.92" width="6.78" height="724.7" transform="translate(-1.74 3.96) rotate(-.24)"/>
            <rect class="cls-9" x="941.97" y="53.92" width="6.78" height="724.7" transform="translate(-1.74 3.96) rotate(-.24)"/>
            <rect class="cls-9" x="1113.03" y="54.67" width="6.78" height="724.7" transform="translate(-1.74 4.68) rotate(-.24)"/>
            <rect class="cls-9" x="1261.81" y="53.92" width="6.78" height="724.7" transform="translate(-1.73 5.3) rotate(-.24)"/>
          </g>
          <g>
            <circle class="cls-9" cx="632.52" cy="18.98" r="18.98"/>
            <circle class="cls-9" cx="1592.01" cy="18.98" r="18.98"/>
            <rect class="cls-20" x="651.5" y="4.87" width="922.53" height="28.22" rx="10.15" ry="10.15"/>
          </g>
        </g>
        <g>
          <path class="cls-20" d="m1164.12,33.59s-2.16,451.26,224.55,589.44c0,0-55.85,103.64-62.32,289.32l130.72,1.08.69-311.99s38.86-500.92-6.48-567.85h-287.16Z"/>
          <path class="cls-12" d="m1457.74,612.23s-29.15,17.28-69.07,10.8"/>
          <path class="cls-12" d="m1231.44,33.59c-9.81,131.67,7.34,267.26,57.78,389.69,15.08,36.53,34.25,72.01,56.44,104.75,3.13,4.99,8.15,11.31,11.58,16.14,6.53,9.43,17.37,22.19,24.6,31.21,6.38,7.24,13.55,14.9,20.03,22.1,4.87,4.84,16.38,16.01,21.32,20.88-5.09-4.78-16.81-15.99-21.64-20.56-6.64-7.17-13.88-14.66-20.38-21.82-126.03-144.66-166.32-355.2-149.74-542.38h0Z"/>
          <path class="cls-12" d="m1339.4,33.59c-5.38,11.24-6.68,23.99-8.33,36.21-1.58,17.77-1.99,38.1-1.06,55.94.15,3.56.38,10.67.52,13.99.24,2.62,1.6,20.16,1.86,23.26,3,35.68,8.9,75.58,15.27,110.92,20.72,115.11,52.77,231.78,85.48,344.18-7.25,54.98-10.22,110.67-10.28,166.16-.2,42.99,1.62,86.36,5.06,129.19-4.47-49.09-6.85-98.37-6.29-147.68.64-48.57,3.17-100.52,9.7-147.13-4.13-14.13-22.51-77.26-26.1-89.7-24.64-89.62-47.22-181.42-62.4-273.14-5.7-35.53-10.99-75.54-13.11-111.33-.67-8.64-.64-19.36-.96-28.02-.34-14.5.51-32.26,1.91-46.67,1.77-12.23,3.22-24.97,8.72-36.17h0Z"/>
          <path class="cls-12" d="m1415.72,624.12c-15.25,73.24-43.3,222.48-9.4,288.9-37.06-66.72-9.01-215.66,9.4-288.9h0Z"/>
        </g>
        <g>
          <path class="cls-20" d="m1019.79,33.59s2.16,451.26-224.55,589.44c0,0,55.85,103.64,62.32,289.32l-130.72,1.08-.69-311.99s-38.86-500.92,6.48-567.85h287.16Z"/>
          <path class="cls-12" d="m726.17,612.23s29.15,17.28,69.07,10.8"/>
          <path class="cls-12" d="m952.47,33.59c16.59,187.15-23.71,397.73-149.74,542.38-6.5,7.16-13.79,14.72-20.38,21.82-4.94,4.77-16.63,15.77-21.64,20.56,5.01-4.85,16.56-16.23,21.32-20.88,6.52-7.26,13.64-14.85,20.03-22.1,7.34-9.09,18.03-21.77,24.6-31.21,3.47-4.93,8.44-11.14,11.58-16.14,22.2-32.76,41.36-68.21,56.44-104.75,50.45-122.44,67.6-258.02,57.79-389.69h0Z"/>
          <path class="cls-12" d="m844.51,33.59c5.51,11.19,6.95,23.95,8.72,36.17,1.41,14.34,2.25,32.18,1.91,46.67-.31,8.69-.3,19.41-.96,28.02-2.12,35.75-7.41,75.8-13.11,111.33-15.17,91.72-37.75,183.53-62.39,273.14-3.67,12.79-22.07,75.84-26.1,89.7,6.55,46.61,9.07,98.54,9.71,147.13.56,49.3-1.82,98.59-6.29,147.68,3.44-42.83,5.26-86.2,5.06-129.19-.06-55.49-3.03-111.18-10.28-166.16,32.73-112.46,64.74-229.02,85.48-344.18,6.38-35.36,12.27-75.2,15.28-110.92,0,0,1.48-18.61,1.48-18.61l.38-4.65c.18-4.27.37-9.99.52-13.99.93-17.84.51-38.15-1.06-55.94-1.64-12.23-2.95-24.97-8.33-36.21h0Z"/>
          <path class="cls-12" d="m768.2,624.12c18.37,73.01,46.48,222.2,9.4,288.9,33.88-66.4,5.89-215.46-9.4-288.9h0Z"/>
        </g>
      </g>
      <ellipse class="cls-20" cx="1571.12" cy="1830.56" rx="983.54" ry="44.77"/>
      <path class="cls-20" d="m1892.03,585.03h-42.2c-4-1.42-6.2-4.17-6.74-8.45-.85-6.65-1.95-13.26-2.86-19.9-.17-1.24-.73-1.94-1.81-2.45-3.23-1.55-6.36-3.3-9.27-5.39-1.23-.89-2.35-.91-3.74-.33-6.02,2.49-12.08,4.89-18.14,7.3-5.52,2.2-9.72.75-12.68-4.36-5.86-10.12-11.71-20.25-17.56-30.38-3.23-5.6-2.39-9.89,2.74-13.9,4.99-3.9,9.95-7.83,14.99-11.65,1.36-1.03,1.76-2.17,1.53-3.79-.46-3.18-.46-6.38-.02-9.55.24-1.75-.13-2.98-1.63-4.11-5.05-3.81-10-7.75-14.98-11.66-5.04-3.95-5.86-8.22-2.67-13.75,5.85-10.13,11.71-20.25,17.56-30.38,2.95-5.09,7.24-6.61,12.67-4.45,6.11,2.44,12.23,4.87,18.32,7.37,1.33.55,2.4.49,3.57-.35,2.97-2.12,6.14-3.91,9.43-5.49,1.02-.49,1.51-1.18,1.67-2.33.95-6.89,1.96-13.78,2.99-20.66.72-4.84,4.19-7.88,9.08-7.89,12.4-.03,24.8-.02,37.2,0,5.03,0,8.44,2.96,9.2,7.97,1.03,6.82,2.04,13.64,2.97,20.47.17,1.23.67,1.96,1.76,2.47,3.25,1.52,6.36,3.3,9.27,5.38,1.3.93,2.47.92,3.91.33,5.9-2.44,11.85-4.79,17.79-7.15,5.9-2.34,9.87-.97,13.07,4.54,5.84,10.06,11.65,20.14,17.46,30.21,3.11,5.39,2.28,9.78-2.61,13.63-5.07,3.99-10.15,7.99-15.27,11.91-1.21.92-1.69,1.91-1.48,3.43.49,3.43.48,6.89,0,10.32-.21,1.51.25,2.51,1.46,3.43,5.28,4.04,10.51,8.14,15.72,12.27,4.32,3.42,5.21,7.97,2.46,12.75-5.95,10.36-11.92,20.72-17.93,31.05-2.99,5.14-7.17,6.53-12.7,4.32-6.11-2.44-12.23-4.87-18.32-7.37-1.25-.51-2.28-.46-3.4.33-2.99,2.1-6.13,3.94-9.43,5.5-1.08.51-1.61,1.22-1.78,2.46-.9,6.64-1.99,13.26-2.85,19.91-.55,4.27-2.76,7.03-6.78,8.42Zm11.38-98.17c.01-17.91-14.53-32.51-32.38-32.53-17.91-.02-32.55,14.52-32.58,32.34-.03,18,14.53,32.62,32.49,32.62,17.89,0,32.46-14.56,32.47-32.44Z"/>
      <g class="cls-25">
        <rect class="cls-20" x="2202.9" y="183.74" width="308.26" height="445.45"/>
        <rect class="cls-8" x="2226.19" y="209.39" width="252.09" height="375.26"/>
        <rect class="cls-20" x="2250.35" y="232.18" width="202.77" height="318.57"/>
      </g>
      <g>
        <g>
          <path class="cls-11" d="m2271.19,1301.78c-4.59-39.17-11.77-78.93-30.96-113.39-19.19-34.46-52.35-63.16-91.5-67.98-31.82-3.92-64.3,7.94-95.87,2.34-9.43-1.67-18.63-4.89-28.2-5.34-9.57-.45-20.09,2.57-25.31,10.6,15.81,9.36,32.72,16.87,50.26,22.33-4.67,7.84.04,18.4,7.35,23.86s16.54,7.47,25.07,10.72c21.21,8.09,38.52,24.33,51.63,42.86,13.11,18.53,22.42,39.42,31.65,60.16,9.63,21.65,19.26,43.3,28.9,64.94,6.61,14.85,13.23,29.74,18.27,45.2,24.16,74.13,10.75,157.42,40.13,229.65-1.07-2.63,13.42-26.59,13.93-32.96.77-9.46-.59-18.42.65-28.07,3.78-29.33,7.33-58.54,9.07-88.08,3.47-58.95,1.78-118.2-5.08-176.84Z"/>
          <path class="cls-15" d="m2257.73,1598.87c-.66,0-1.23-.49-1.31-1.16-7.29-59.07-11.44-119.2-12.35-178.71-.08-5.4-.14-10.8-.19-16.21-.37-35.03-.74-71.24-8.39-105.82-10.39-46.97-34.86-91.55-68.91-125.54-.52-.52-.52-1.36,0-1.87.52-.52,1.35-.52,1.87,0,34.4,34.34,59.13,79.38,69.62,126.84,7.71,34.85,8.09,71.2,8.45,106.36.06,5.41.11,10.81.19,16.2.9,59.42,5.05,119.45,12.33,178.43.09.73-.43,1.39-1.15,1.48-.06,0-.11.01-.16.01Z"/>
        </g>
        <g>
          <path class="cls-11" d="m2275.46,1292.38c9.22-38.35,21.08-76.97,44.23-108.9s59.5-56.48,98.94-56.61c32.07-.1,62.89,15.54,94.91,13.73,9.56-.54,19.08-2.64,28.63-1.94,9.55.7,19.64,4.94,23.87,13.53-16.81,7.41-34.49,12.86-52.56,16.19,3.7,8.34-2.23,18.26-10.14,22.82s-17.31,5.44-26.17,7.66c-22.02,5.51-41.14,19.57-56.36,36.41-15.22,16.84-26.95,36.47-38.58,55.97-12.14,20.35-24.28,40.7-36.42,61.04-8.33,13.96-16.68,27.96-23.52,42.71-32.81,70.73-29.41,155.02-67.18,223.24,1.37-2.48-10.16-28-9.91-34.38.36-9.48,2.78-18.22,2.69-27.95-.26-29.57-.32-59,1.47-88.54,3.57-58.94,12.29-117.57,26.09-174.98Z"/>
          <path class="cls-15" d="m2253.62,1588.97c-.1,0-.21-.01-.32-.04-.71-.18-1.14-.89-.97-1.6,14.25-57.7,25.51-116.81,33.47-175.7.72-5.35,1.42-10.7,2.12-16.06,4.55-34.87,9.25-70.92,21.05-104.6,16.07-45.87,45.98-87.66,84.22-117.65.58-.45,1.41-.35,1.86.23.45.58.35,1.41-.22,1.86-37.85,29.69-67.45,71.04-83.36,116.44-11.71,33.42-16.39,69.34-20.92,104.07-.7,5.36-1.4,10.72-2.12,16.07-7.98,58.98-19.26,118.19-33.53,175.98-.15.6-.69,1.01-1.28,1.01Z"/>
        </g>
        <g>
          <path class="cls-11" d="m2321.64,1405.63c14.67-26.64,31.37-52.95,55.1-71.97,23.73-19.03,55.76-29.88,85.12-21.93,23.87,6.46,43.61,24.38,67.79,29.56,7.22,1.55,14.73,1.93,21.69,4.39,6.96,2.47,13.6,7.68,14.99,14.93-14.02,2.09-28.27,2.53-42.39,1.32,1.05,6.96-5.38,13.13-12.19,14.9-6.81,1.78-13.99.52-21.02.36-17.5-.39-34.59,6.17-49.34,15.59-14.75,9.42-27.48,21.63-40.1,33.76-13.18,12.66-26.35,25.32-39.53,37.98-9.04,8.69-18.1,17.39-26.2,26.97-38.82,45.92-53.48,109.3-95.47,152.34,1.53-1.57-1.85-22.9-.36-27.59,2.2-6.98,5.78-12.98,7.7-20.24,5.83-22.05,11.79-43.94,19.14-65.55,14.67-43.11,33.11-84.93,55.08-124.82Z"/>
          <path class="cls-15" d="m2245.2,1621.8c-.17,0-.34-.04-.5-.13-.49-.28-.67-.9-.39-1.39,22.35-40,42.78-81.67,60.71-123.85,1.63-3.83,3.24-7.67,4.85-11.51,10.49-25.01,21.34-50.86,36.98-73.51,21.3-30.84,52.07-55.82,86.62-70.33.52-.22,1.12.03,1.34.55s-.03,1.12-.55,1.34c-34.2,14.37-64.65,39.09-85.73,69.61-15.52,22.47-26.33,48.23-36.78,73.14-1.61,3.85-3.23,7.69-4.86,11.52-17.96,42.24-38.42,83.98-60.81,124.05-.19.33-.53.52-.89.52Z"/>
        </g>
        <g>
          <path class="cls-11" d="m2193.56,1405.63c-14.67-26.64-31.37-52.95-55.1-71.97-23.73-19.03-55.76-29.88-85.12-21.93-23.87,6.46-43.61,24.38-67.79,29.56-7.22,1.55-14.73,1.93-21.69,4.39-6.96,2.47-13.6,7.68-14.99,14.93,14.02,2.09,28.27,2.53,42.39,1.32-1.05,6.96,5.38,13.13,12.19,14.9,6.81,1.78,13.99.52,21.02.36,17.5-.39,34.59,6.17,49.34,15.59,14.75,9.42,27.48,21.63,40.1,33.76,13.18,12.66,26.35,25.32,39.53,37.98,9.04,8.69,18.1,17.39,26.2,26.97,38.82,45.92,53.48,109.3,95.47,152.34-1.53-1.57,1.85-22.9.36-27.59-2.2-6.98-5.78-12.98-7.7-20.24-5.83-22.05-11.79-43.94-19.14-65.55-14.67-43.11-33.11-84.93-55.08-124.82Z"/>
          <path class="cls-15" d="m2270,1621.8c-.36,0-.71-.19-.89-.52-22.39-40.07-42.85-81.8-60.81-124.05-1.63-3.83-3.24-7.68-4.86-11.53-10.45-24.91-21.26-50.66-36.78-73.13-21.08-30.52-51.53-55.25-85.73-69.61-.52-.22-.76-.82-.55-1.34s.82-.76,1.34-.55c34.56,14.51,65.32,39.49,86.62,70.33,15.64,22.64,26.49,48.5,36.98,73.5,1.61,3.85,3.23,7.69,4.85,11.52,17.93,42.18,38.36,83.84,60.71,123.85.28.49.1,1.12-.39,1.39-.16.09-.33.13-.5.13Z"/>
        </g>
        <polygon class="cls-2" points="2413.95 1580.63 2375.1 1818.47 2170.22 1818.47 2133.73 1580.63 2413.95 1580.63"/>
        <polygon class="cls-3" points="2207.59 1818.47 2170.22 1818.47 2133.73 1580.63 2169.51 1580.63 2207.59 1818.47"/>
      </g>
    </g>
    <g id="Layer_3" data-name="Layer 3">
      <g>
        <path class="cls-1" d="m2189.93,414.8v1242.41c0,87.13-70.64,157.76-157.76,157.76h-518.18c-87.14,0-157.77-70.64-157.77-157.76V414.8c0-87.13,70.64-157.76,157.77-157.76h518.18c87.13,0,157.76,70.64,157.76,157.76Z"/>
        <g class="cls-26">
          <path class="cls-1" d="m2189.93,414.8v1242.41c0,87.13-70.64,157.76-157.76,157.76h-262.77V257.04h262.77c87.13,0,157.76,70.64,157.76,157.76Z"/>
        </g>
        <rect class="cls-10" x="1419.61" y="437.62" width="706.93" height="1196.78" rx="37.94" ry="37.94"/>
        <rect class="cls-13" x="1678.23" y="346.69" width="189.7" height="34.1" rx="17.05" ry="17.05"/>
        <circle class="cls-13" cx="1773.08" cy="1730.61" r="42.58"/>
        <path class="cls-1" d="m1346.86,571.13h20.89v125.83h-20.89c-2.78,0-5.04-2.26-5.04-5.04v-115.74c0-2.78,2.26-5.04,5.04-5.04Z"/>
        <path class="cls-1" d="m1346.86,745.46h20.89v125.83h-20.89c-2.78,0-5.04-2.26-5.04-5.04v-115.74c0-2.78,2.26-5.04,5.04-5.04Z"/>
        <path class="cls-1" d="m2176.97,589.86h21.49c2.45,0,4.44,1.99,4.44,4.44v139.35c0,2.45-1.99,4.44-4.44,4.44h-21.49v-148.24h0Z"/>
        <path class="cls-11" d="m1823.57,654.12v-25.33c0-27.85-22.66-50.48-50.51-50.48s-50.48,22.63-50.48,50.48v25.35c-8.12,2.35-14.02,9.84-14.02,18.72v57.26c0,10.77,8.74,19.53,19.53,19.53h89.97c10.79,0,19.53-8.76,19.53-19.53v-57.26c0-8.88-5.92-16.37-14.02-18.74Zm-50.51-54.76c16.25,0,29.46,13.19,29.46,29.44v24.54h-58.9v-24.54c0-16.25,13.21-29.44,29.44-29.44Zm9.84,106.29v22.24h-20.46v-22.68c-1.35-1.05-2.54-2.3-3.52-3.72-1.91-2.77-3.03-6.09-3.03-9.71,0-4.36,1.64-8.32,4.33-11.33,3.11-3.52,7.68-5.73,12.75-5.73s9.62,2.2,12.75,5.73c2.67,3.01,4.31,6.97,4.31,11.33,0,3.62-1.13,6.95-3.03,9.71-1.1,1.62-2.5,3.03-4.09,4.16Z"/>
        <path class="cls-11" d="m1570.89,1093.6h-63.39c-16.66,0-30.22-13.55-30.22-30.22v-152.08c0-16.66,13.55-30.22,30.22-30.22h63.39c16.66,0,30.22,13.55,30.22,30.22v152.08c0,16.66-13.55,30.22-30.22,30.22Zm-63.39-210.35c-15.47,0-28.05,12.59-28.05,28.05v152.08c0,15.47,12.59,28.05,28.05,28.05h63.39c15.47,0,28.05-12.58,28.05-28.05v-152.08c0-15.47-12.59-28.05-28.05-28.05h-63.39Z"/>
        <path class="cls-11" d="m1722.18,1093.6h-63.39c-16.66,0-30.22-13.55-30.22-30.22v-152.08c0-16.66,13.55-30.22,30.22-30.22h63.39c16.66,0,30.22,13.55,30.22,30.22v152.08c0,16.66-13.55,30.22-30.22,30.22Zm-63.39-210.35c-15.47,0-28.05,12.59-28.05,28.05v152.08c0,15.47,12.59,28.05,28.05,28.05h63.39c15.47,0,28.05-12.58,28.05-28.05v-152.08c0-15.47-12.59-28.05-28.05-28.05h-63.39Z"/>
        <path class="cls-11" d="m1873.46,1093.6h-63.39c-16.66,0-30.22-13.55-30.22-30.22v-152.08c0-16.66,13.55-30.22,30.22-30.22h63.39c16.66,0,30.22,13.55,30.22,30.22v152.08c0,16.66-13.56,30.22-30.22,30.22Zm-63.39-210.35c-15.47,0-28.05,12.59-28.05,28.05v152.08c0,15.47,12.59,28.05,28.05,28.05h63.39c15.47,0,28.05-12.58,28.05-28.05v-152.08c0-15.47-12.59-28.05-28.05-28.05h-63.39Z"/>
        <path class="cls-11" d="m2024.74,1093.6h-63.39c-16.66,0-30.22-13.55-30.22-30.22v-152.08c0-16.66,13.55-30.22,30.22-30.22h63.39c16.66,0,30.22,13.55,30.22,30.22v152.08c0,16.66-13.56,30.22-30.22,30.22Zm-63.39-210.35c-15.47,0-28.05,12.59-28.05,28.05v152.08c0,15.47,12.58,28.05,28.05,28.05h63.39c15.47,0,28.06-12.58,28.06-28.05v-152.08c0-15.47-12.59-28.05-28.06-28.05h-63.39Z"/>
        <path class="cls-1" d="m1556.3,986.25l-13.32,2.72,9.23,11.81-5.35,3.69-7.58-12.88-7.68,12.88-5.35-3.69,9.23-11.81-13.41-2.72,2.19-6.08,12.73,4.81-1.12-14.77h6.71l-1.12,14.77,12.78-4.81,2.04,6.08Z"/>
        <path class="cls-1" d="m1707.59,986.25l-13.32,2.72,9.23,11.81-5.35,3.69-7.58-12.88-7.68,12.88-5.35-3.69,9.23-11.81-13.41-2.72,2.19-6.08,12.73,4.81-1.12-14.77h6.71l-1.12,14.77,12.78-4.81,2.04,6.08Z"/>
        <path class="cls-1" d="m1858.87,986.25l-13.32,2.72,9.23,11.81-5.35,3.69-7.58-12.88-7.68,12.88-5.35-3.69,9.23-11.81-13.41-2.72,2.19-6.08,12.73,4.81-1.12-14.77h6.71l-1.12,14.77,12.78-4.81,2.04,6.08Z"/>
        <path class="cls-1" d="m2010.16,986.25l-13.32,2.72,9.23,11.81-5.35,3.69-7.58-12.88-7.68,12.88-5.35-3.69,9.23-11.81-13.41-2.72,2.19-6.08,12.73,4.81-1.12-14.77h6.71l-1.12,14.77,12.78-4.81,2.04,6.08Z"/>
        <g>
          <circle class="cls-18" cx="1724.25" cy="1581.89" r="13.45"/>
          <circle class="cls-18" cx="1782.84" cy="1581.89" r="13.45"/>
          <circle class="cls-18" cx="1841.43" cy="1581.89" r="13.45"/>
        </g>
        <rect class="cls-11" x="1489.96" y="1183.45" width="566.23" height="85" rx="42.5" ry="42.5"/>
        <g>
          <path class="cls-10" d="m1703.56,1245.15v-44.4h12.26c15.65,0,23.47,7.21,23.47,21.64,0,6.85-2.17,12.36-6.52,16.52-4.35,4.16-10.16,6.24-17.45,6.24h-11.77Zm5.2-39.69v34.99h6.63c5.82,0,10.35-1.56,13.59-4.68,3.24-3.12,4.86-7.53,4.86-13.25,0-11.37-6.05-17.06-18.14-17.06h-6.94Z"/>
          <path class="cls-10" d="m1760.6,1245.89c-4.69,0-8.43-1.48-11.22-4.44-2.8-2.96-4.2-6.89-4.2-11.78,0-5.33,1.46-9.49,4.37-12.48,2.91-2.99,6.84-4.49,11.8-4.49s8.42,1.46,11.07,4.37c2.65,2.91,3.98,6.95,3.98,12.11s-1.43,9.11-4.29,12.15c-2.86,3.05-6.69,4.57-11.5,4.57Zm.37-28.92c-3.26,0-5.84,1.11-7.74,3.33-1.9,2.22-2.85,5.28-2.85,9.18s.96,6.72,2.88,8.89c1.92,2.17,4.49,3.25,7.71,3.25s5.81-1.06,7.57-3.19,2.65-5.15,2.65-9.07-.88-7.02-2.65-9.16c-1.76-2.15-4.29-3.22-7.57-3.22Z"/>
          <path class="cls-10" d="m1810.82,1245.15h-5.08v-18.08c0-6.73-2.46-10.09-7.37-10.09-2.54,0-4.64.95-6.3,2.86-1.66,1.91-2.49,4.32-2.49,7.23v18.08h-5.08v-31.71h5.08v5.26h.12c2.39-4,5.86-6.01,10.4-6.01,3.47,0,6.12,1.12,7.96,3.36,1.84,2.24,2.76,5.48,2.76,9.71v19.38Z"/>
          <path class="cls-10" d="m1845.87,1230.56h-22.39c.08,3.53,1.03,6.25,2.85,8.17,1.82,1.92,4.31,2.88,7.49,2.88,3.57,0,6.85-1.18,9.85-3.53v4.77c-2.79,2.02-6.47,3.03-11.05,3.03s-8-1.44-10.56-4.32c-2.56-2.88-3.84-6.93-3.84-12.15,0-4.93,1.4-8.95,4.2-12.06,2.8-3.11,6.27-4.66,10.42-4.66s7.36,1.34,9.63,4.03c2.27,2.68,3.41,6.41,3.41,11.18v2.66Zm-5.2-4.3c-.02-2.93-.73-5.21-2.12-6.84-1.39-1.63-3.33-2.45-5.81-2.45s-4.43.86-6.1,2.57c-1.67,1.71-2.7,3.95-3.1,6.72h17.12Z"/>
        </g>
        <path class="cls-24" d="m1823.57,654.12v-25.33c0-27.85-22.66-50.48-50.51-50.48s-50.48,22.63-50.48,50.48v25.35c-8.12,2.35-14.02,9.84-14.02,18.72v57.26c0,10.77,8.74,19.53,19.53,19.53h89.97c10.79,0,19.53-8.76,19.53-19.53v-57.26c0-8.88-5.92-16.37-14.02-18.74Zm-50.51-54.76c16.25,0,29.46,13.19,29.46,29.44v24.54h-58.9v-24.54c0-16.25,13.21-29.44,29.44-29.44Zm9.84,106.29v22.24h-20.46v-22.68c-1.35-1.05-2.54-2.3-3.52-3.72-1.91-2.77-3.03-6.09-3.03-9.71,0-4.36,1.64-8.32,4.33-11.33,3.11-3.52,7.68-5.73,12.75-5.73s9.62,2.2,12.75,5.73c2.67,3.01,4.31,6.97,4.31,11.33,0,3.62-1.13,6.95-3.03,9.71-1.1,1.62-2.5,3.03-4.09,4.16Z"/>
        <rect class="cls-24" x="1489.96" y="1183.45" width="566.23" height="85" rx="42.5" ry="42.5"/>
      </g>
    </g>
    <g id="Layer_2" data-name="Layer 2">
      <g>
        <path class="cls-19" d="m1063.39,475.92c1.22-4.15,4.59-7.61,8.7-8.95,4.12-1.34,8.87-.53,12.31,2.11,4.68,3.59,6.5,9.94,6.3,15.84-.28,8.24-3.97,16.18-9.54,22.26-5.57,6.07-12.94,10.35-20.77,12.94"/>
        <g>
          <polygon class="cls-19" points="1025.16 562.78 1023.78 572.93 1020.51 597.06 1018.72 610.29 1016.32 627.95 945.13 627.95 953.97 586.08 957.62 568.77 961.29 551.39 962.04 547.86 962.09 547.39 964.41 548.79 1025.16 562.78"/>
          <path class="cls-16" d="m1025.16,562.78l-1.38,10.15-3.27,24.13c-21.74-9.39-43.7-18.43-62.89-28.29l3.67-17.38.75-3.53.05-.47,2.32,1.4,60.75,13.99Z"/>
          <path class="cls-19" d="m1058.57,527.9c-6.05,15.05-16.06,28.45-28.77,38.54-.03.02-.06.04-.09.07-3.73,2.97-7.78,5.66-12.08,7.77-5,2.46-10.34,4.13-15.9,4.47-14.62.91-28.63-7.61-37.65-19.17-2.78-3.56-5.14-7.35-7.2-11.34-3.35-6.45-5.9-13.36-8.05-20.38-.84-2.73-1.61-5.49-2.35-8.24-4.06-15.15-7.19-30.68-7.15-46.35.02-15.68,3.33-31.61,11.41-45.05,8.07-13.44,21.23-24.17,36.55-27.5,12.12-2.63,24.8-.59,36.67,3,10.15,3.06,20.13,7.36,28.13,14.31,15.11,13.15,14,30.08,14.63,48.46.72,20.69-.31,41.97-8.14,61.4Z"/>
          <path class="cls-17" d="m996.7,482.09c-9.52-1-18.41-.33-27.68,2.04,6.67-7.63,19.96-8.6,27.68-2.04h0Z"/>
          <path class="cls-17" d="m1028.05,482.05c9.23-4.17,21.74.43,26.04,9.6-8.26-4.84-16.61-7.94-26.04-9.6h0Z"/>
          <path class="cls-17" d="m1016.56,494.28c1.5,8.24,1.58,16.69.79,25.01-.14.95-.27,2.88-.49,3.82-.87,3.36-4.47,1.82-5.95-.17-1.13-1.34-1.85-2.98-2-4.66.79,2.29,2.39,4.34,4.55,5.31,1.73.64,1.98-.31,2.03-1.96.66-9.11.81-18.21,1.07-27.35h0Z"/>
          <path class="cls-17" d="m998.96,537.37c3.03,1.94,5.65,3.7,9.02,4.55,2.17.41,4.51.3,6.69-.5,1.39-.4,2.62-1.05,4.07-1.52,0,0,.14.15.14.15-2.87,2.63-6.62,4.74-10.65,4-3.91-.71-7.16-3.43-9.44-6.57,0,0,.17-.12.17-.12h0Z"/>
          <ellipse class="cls-17" cx="1035.92" cy="507.82" rx="7.7" ry="4.61" transform="translate(453.95 1503.98) rotate(-85.82)"/>
          <ellipse class="cls-17" cx="990.42" cy="504.67" rx="7.7" ry="4.61" transform="translate(336.44 1403.52) rotate(-80.96)"/>
        </g>
        <path class="cls-1" d="m967.64,436.23c17.86,14.27,45.27,15.02,63.88,1.74,2.53-1.81,5.21-3.94,8.32-3.78,4.36.22,7.03,4.65,10.09,7.76,5.88,5.99,15.38,7.77,23.33,5.08s14.21-9.45,17.11-17.32c2.9-7.88,2.61-16.73.04-24.72-1.88-5.84-5.32-11.65-10.96-14.06-4.23-1.81-9.61-1.73-12.51-5.3-1.91-2.35-2.12-5.62-3.39-8.36-1.58-3.39-4.9-5.9-8.59-6.49s-7.63.76-10.19,3.49c-1.75,1.87-3.25,4.53-5.8,4.67-2.74.15-4.54-2.69-5.99-5.03-7.42-11.97-21.73-19.3-35.77-18.32s-27.21,10.2-32.9,23.08c-1.74,3.93-2.89,8.25-5.76,11.45-3.49,3.89-8.89,5.41-14.05,6.18s-10.52.99-15.32,3.04c-7.9,3.35-13.21,11.37-14.75,19.81-2.77,15.21,3.61,34.66,20.41,37.82,5.59,1.05,11.41.24,16.69-1.79,1.33-.51,2.63-1.1,3.89-1.76s1.98-1.39,2.9-2.53c1.84-2.27,3.52-4.67,5.02-7.17s2.79-5,3.92-7.63"/>
        <path class="cls-19" d="m940.63,485.82c-1.92-3.88-5.83-6.71-10.11-7.32-4.29-.61-8.83,1.01-11.76,4.2-4,4.35-4.69,10.91-3.48,16.68,1.69,8.07,6.69,15.26,13.23,20.29s14.53,7.97,22.68,9.17"/>
        <path class="cls-16" d="m931.24,491.14c-1.46-.31-3.12-.09-4.22.92-1.27,1.17-1.52,3.09-1.4,4.81.43,5.95,4.62,11.45,10.24,13.45.89.32,1.83.55,2.76.41s1.84-.72,2.14-1.62c.43-1.31-.59-2.69-1.78-3.38s-2.59-.99-3.74-1.75c-1.71-1.13-2.65-3.22-2.63-5.27.03-2,1.08-3.18,1.76-4.92s-1.66-2.35-3.12-2.65Z"/>
        <path class="cls-16" d="m1073.98,480.87c1.32-.7,2.97-.95,4.31-.28,1.55.77,2.31,2.55,2.67,4.24,1.23,5.83-1.28,12.28-6.13,15.75-.76.55-1.61,1.04-2.54,1.16s-1.97-.19-2.5-.96c-.78-1.14-.18-2.75.78-3.74s2.22-1.67,3.11-2.72c1.33-1.56,1.66-3.83,1.07-5.79-.58-1.92-1.92-2.76-3.04-4.25s.95-2.71,2.27-3.41Z"/>
      </g>
      <g>
        <rect class="cls-19" x="766.33" y="1624.05" width="171.65" height="161.73" transform="translate(1704.32 3409.84) rotate(-180)"/>
        <path class="cls-1" d="m938.23,1728.16s-74.39,42.78-146.82,0c0,0-188.15-96.89-188.15,59.23,0,0,.93,25.12,5.66,31.08h329.32s0-90.31,0-90.31Z"/>
      </g>
      <g>
        <rect class="cls-19" x="1036.26" y="1624.05" width="171.65" height="161.73"/>
        <path class="cls-1" d="m1036.02,1728.16s74.39,42.78,146.82,0c0,0,188.15-96.89,188.15,59.23,0,0-.93,25.12-5.66,31.08h-329.32v-90.31Z"/>
      </g>
      <polygon class="cls-1" points="868.22 844.07 728.52 1703.62 951.75 1706.21 1001.38 844.94 868.22 844.07"/>
      <polygon class="cls-1" points="1115.52 856.28 1233.55 1704.92 1012.51 1704.92 974.02 856.12 1115.52 856.28"/>
      <path class="cls-19" d="m1230.86,846.35s-12.46,57.89-85.64,33.45l-72.79-176.38-10.91-92.56,55.8,77.57,113.54,157.92Z"/>
      <polygon class="cls-19" points="1192.72 801.95 1376.52 793.9 1392.74 936.1 1145.88 883.07 1192.72 801.95"/>
      <path class="cls-11" d="m952.54,592.77s-30.1,2.56-39.7,3.85c-.98.13-1.78.86-2.01,1.82l-64.75,267.31,269.92-2.76-51.71-252.43c-.22-1.08-.91-2-1.89-2.52-5.51-2.89-24.75-12.21-41.89-10.99,0,0-39.36,13.24-67.97-4.3Z"/>
      <polygon class="cls-19" points="877.75 734.96 733.2 958.19 663.73 864.27 869.79 634.02 877.75 734.96"/>
      <polygon class="cls-11" points="911.57 597.2 773.86 713.3 867.84 783.53 911.57 597.2"/>
      <polygon class="cls-11" points="1063.71 609.22 1174.62 733.09 1070.35 786.5 1063.71 609.22"/>
      <path class="cls-7" d="m1010.64,775.01l-79.1,175.34c-5.67,12.57,4.07,26.66,17.83,25.8l156.31-9.77c6.81-.43,12.82-4.61,15.59-10.84l80.01-180.31c5.67-12.79-4.51-26.95-18.44-25.65l-157.22,14.74c-6.55.61-12.27,4.7-14.98,10.7Z"/>
      <path class="cls-19" d="m663.73,864.27l130.91-27.27,190.5,7.58,5.07,151.16s-197.28,6.19-285.43-44c-46.73-26.61-56.54-62.61-41.06-87.46Z"/>
      <path class="cls-19" d="m1092.24,807.47c9.93-6.6,23.15-13.32,32.74-4.8,5.55,4.93,6.99,14.77,3.6,21.38-9.58,18.65-30.61,20.11-45.68,30.93-2.72,1.95-7,6.46-4.33,8.48,1.52,1.15,4.85-.31,11.57,0,15.48.74,30.96,1.47,46.44,2.21,6.19.29,12.3,1.72,17.85,4.46,8.29,4.09,15.2,9.85,13.87,18.98-1.27,8.7-45.33,9.67-54.3,11.96-.63.16-.76,1.01-.2,1.34,5.13,2.97,34.9,7.3,38.03,8.51,5.23,2.04,11.62.5,15.24,7.07,3.36,6.11,1.27,13.72-4.2,18.04-8.19,6.46-46.36,5.58-60.29,3.81-.77-.1-1.14.9-.5,1.33,13.09,8.88,50.58,20.02,45.97,32.76-2.52,6.97-8.6,7.91-15.78,9.76-13.8,3.54-39.69-10.37-54.82-11.72-.54-.05-.97.51-.74,1,1.97,4.27,19.72,15.41,25.57,20.41,8.07,6.9,1.96,20.08-8.53,18.5-24.17-3.64-74.17-8.68-88.66-12.83-17.97-5.14-26.96-5.98-37.6-21.35-8.32-12.02,1.23-36.15.74-50.76-1.05-31.32-5.19-75.01,27.44-88.82,30.32-12.83,68.93-12.3,96.57-30.65Z"/>
      <path class="cls-15" d="m881.58,706.92c7.18-12.11,14.42-24.12,20.74-36.65,6.24-12.47,12.05-25.29,13.82-39.3,2.07,25.19-18.1,57.77-34.57,75.95h0Z"/>
      <path class="cls-15" d="m1080.5,694.81c-18.98-17.09-33.98-42.48-41.35-66.86,1.7,2.86,3.16,5.8,4.78,8.67,10.9,20.17,22.99,39.69,36.57,58.19h0Z"/>
      <g>
        <path class="cls-19" d="m1376.52,793.9c2.78-2.91,50.11-49.58,63.1-61.26,6.08-5.46,17-12.59,28.35-16.49,16.53-5.67,33.94,6,35.22,23.42l.15,2.01c9.65-5.6,31.81-16.5,57.15-11.09,8.4,1.79,19.85,4.24,25.74,14.42,7.8,13.5-.48,29.72-1.42,31.49,2.56.63,14.26,3.8,19.18,13.98,6,12.4-.15,30.89-17.09,41.14,8.44,5.41,13.52,14.61,13.02,24.09-.64,12.17-10.38,22.93-23.7,25.26.65.38,11.91,7.2,11.74,18.5-.14,8.88-7.24,14.42-11.14,17.47-11.5,8.97-25.23,7.86-29.47,7.34-26.07-.17-52.15-.33-78.22-.5-24.99,13.51-50.49,16.87-76.4,12.4-41.62-17.32-16.22-142.2-16.22-142.2Z"/>
        <g>
          <path class="cls-11" d="m1476.37,826.35c-2.01-.41-3.83-1.44-5.21-2.96-1.64-1.81-2.46-4.11-2.3-6.47l3.21-47.02c.16-2.36,1.28-4.5,3.15-6.02,1.87-1.52,4.27-2.25,6.75-2.05l.31.03c5.14.42,9.03,4.72,8.7,9.59l-3.21,47.02c-.16,2.36-1.28,4.5-3.15,6.02-1.87,1.52-4.27,2.25-6.75,2.05l-.31-.02c-.4-.03-.8-.09-1.19-.17Zm6.63-62.02c-.29-.06-.58-.1-.88-.13l-.31-.03c-3.77-.31-7.03,2.35-7.28,5.93l-3.21,47.02c-.12,1.73.48,3.42,1.69,4.75,1.21,1.33,2.88,2.15,4.7,2.3l.31.03c3.77.31,7.04-2.35,7.28-5.93l3.21-47.02c.12-1.73-.48-3.42-1.69-4.76-1.01-1.12-2.35-1.87-3.83-2.17Z"/>
          <path class="cls-11" d="m1510.03,834.33c-3.66-7.61-12.45-11.2-20.7-13.03-9.11-2.02-18.52-2.73-27.83-2.08-5.96.41-12.21,1.51-16.79,5.35-6.17,5.17-7.79,13.89-8.63,21.9-.94,9.08-1.38,18.21-1.33,27.33.03,4.43.4,9.37,3.64,12.38,3.7,3.43,10.37,3.54,12.4,8.17,1.56,3.57-.66,7.36.01,11.02.52,2.89,2.92,4.97,3.45,7.8.58,3.12-.71,6.97-1.22,10.05-.6,3.7-1.2,7.41-1.8,11.12-1.2,7.41-2.4,14.82-3.6,22.23-2.4,14.83-4.79,29.64-7.18,44.46-.6,3.73-1.12,7.89,1.04,11,2.7,3.9,8.8,4.21,12.75,1.58,3.96-2.62,6.03-7.35,6.91-12.02.87-4.67.75-9.47,1.39-14.17.55-3.97,1.75-8.02,4.23-11.09.35-.44.16-1.09-.38-1.24-1.12-.32-2.15-1.41-2.25-2.63-.15-1.95,1.22-3.67,2.71-4.93,1.49-1.26,3.21-2.33,4.24-3.98,1.02-1.66,1-4.21-.67-5.21-.7-.42-1.56-.51-2.27-.92-2.06-1.23-1.49-4.57.28-6.2,1.77-1.63,4.23-2.25,6.26-3.55,2.03-1.29,3.68-3.93,2.52-6.03-1.36-2.47-5.51-2.31-6.72-4.86-1.12-2.37,1.18-4.92,3.44-6.27,2.25-1.35,5-2.83,5.27-5.43.13-1.24-.37-2.45-.68-3.67-.95-3.85.14-7.87,1.22-11.68,1.65-5.85,3.83-12.36,9.31-14.98,2.07-.99,4.41-1.29,6.42-2.39,3.94-2.13,5.77-6.72,7.2-10.97,2.91-8.67,5.41-17.47,7.5-26.37,1.61-6.84,2.91-14.33-.15-20.66Zm-16.78,13.42c-.5,6.45-4.8,12.28-10.8,14.73-6.79,2.77-14.87,1.29-20.89-2.88-4.59-3.18-8.26-8.28-8.11-13.86.11-3.6,1.79-7.01,4.06-9.82,3.02-3.75,7.2-6.63,11.88-7.77,4.69-1.14,9.85-.44,13.89,2.19,5.23,3.41,10.45,11.06,9.97,17.41Z"/>
          <path class="cls-24" d="m1510.03,834.33c-3.66-7.61-12.45-11.2-20.7-13.03-9.11-2.02-18.52-2.73-27.83-2.08-5.96.41-12.21,1.51-16.79,5.35-6.17,5.17-7.79,13.89-8.63,21.9-.94,9.08-1.38,18.21-1.33,27.33.03,4.43.4,9.37,3.64,12.38,3.7,3.43,10.37,3.54,12.4,8.17,1.56,3.57-.66,7.36.01,11.02.52,2.89,2.92,4.97,3.45,7.8.58,3.12-.71,6.97-1.22,10.05-.6,3.7-1.2,7.41-1.8,11.12-1.2,7.41-2.4,14.82-3.6,22.23-2.4,14.83-4.79,29.64-7.18,44.46-.6,3.73-1.12,7.89,1.04,11,2.7,3.9,8.8,4.21,12.75,1.58,3.96-2.62,6.03-7.35,6.91-12.02.87-4.67.75-9.47,1.39-14.17.55-3.97,1.75-8.02,4.23-11.09.35-.44.16-1.09-.38-1.24-1.12-.32-2.15-1.41-2.25-2.63-.15-1.95,1.22-3.67,2.71-4.93,1.49-1.26,3.21-2.33,4.24-3.98,1.02-1.66,1-4.21-.67-5.21-.7-.42-1.56-.51-2.27-.92-2.06-1.23-1.49-4.57.28-6.2,1.77-1.63,4.23-2.25,6.26-3.55,2.03-1.29,3.68-3.93,2.52-6.03-1.36-2.47-5.51-2.31-6.72-4.86-1.12-2.37,1.18-4.92,3.44-6.27,2.25-1.35,5-2.83,5.27-5.43.13-1.24-.37-2.45-.68-3.67-.95-3.85.14-7.87,1.22-11.68,1.65-5.85,3.83-12.36,9.31-14.98,2.07-.99,4.41-1.29,6.42-2.39,3.94-2.13,5.77-6.72,7.2-10.97,2.91-8.67,5.41-17.47,7.5-26.37,1.61-6.84,2.91-14.33-.15-20.66Zm-16.78,13.42c-.5,6.45-4.8,12.28-10.8,14.73-6.79,2.77-14.87,1.29-20.89-2.88-4.59-3.18-8.26-8.28-8.11-13.86.11-3.6,1.79-7.01,4.06-9.82,3.02-3.75,7.2-6.63,11.88-7.77,4.69-1.14,9.85-.44,13.89,2.19,5.23,3.41,10.45,11.06,9.97,17.41Z"/>
        </g>
        <g>
          <path class="cls-19" d="m1555.38,913.21c-15.78-3.09-14.92,10.28-30.69,7.19-7.1-1.39-15.15-3.47-18.43-9.92-2.77-5.46-.94-12.29,2.68-17.24,4.5-6.15,11.42-10.2,18.71-12.43s18.74-2.08,25.98-3.14c-11.12-2.83-24.87-2.97-35.08-6.58-5.63-1.99-11.97-5.52-12.39-11.48-.33-4.71,3.32-8.7,7.02-11.63,11.87-9.38,26.43-10.59,42.3-13.53-10.82-.84-20.51.19-30.22-2.91-3.2-1.02-6.53-2.43-8.34-5.26-3.4-5.31.28-12.27,4.41-17.04,10.34-11.94,24.53-16.27,39.31-25.28-17.11,5.38-34.63,11.9-52.83,13.23-6.7.49-14.31.19-18.84-4.76-3.08-3.36-4-8.27-3.49-12.81s9.9-25.07,11.34-29.57"/>
          <path class="cls-4" d="m1538.41,922.66s0,0,0,0c-5.59-1.18-11.23-2.28-16.77-3.52-5.28-1.29-11.05-3.25-14.11-7.97-3.01-4.7-1.88-10.84.84-15.45,4.3-7.16,12.08-11.76,20.01-14.02,8.29-2.16,16.83-1.67,25.41-2.82,0,0,6.3-.82,6.3-.82l-6.2-1.42c-9.29-2.33-18.71-2.93-27.78-4.82-15.53-2.9-27.47-12.33-10.01-24.29,11.66-7.98,25.95-9.02,39.63-11.68,0,0,0,0,0,0l6.38-2.25s0-.02,0-.02l-6.53-.51c-8.96-.7-17.87,0-26.31-1.82-3.84-.96-8.45-2.06-10.95-5.21-4.79-7.18,3.62-16.16,8.87-20.82,6.61-5.77,14.6-9.64,22.35-13.73,6.24-3.2,9.26-6.31,15.24-10.08-2.65.75-1.12.36-3.74,1.21-3.47,1.13-6.93,2.28-10.41,3.39-3.98,1.27-7.96,2.5-11.98,3.65-4.17,1.19-8.36,2.3-12.59,3.26s-8.12,1.7-12.24,2.21c-3.62.45-7.29.72-10.94.51-2.95-.16-5.96-.62-8.68-1.84-3.76-1.68-6.46-5.16-7.56-9.13-.12-.45-.26-1.19-.3-1.65-.27-3.01.46-5.24,1.63-8.07,1.01-2.45,1.92-4.94,2.75-7.45.54-1.63.99-3.09,1.53-4.83.58-1.87,1.17-3.73,1.86-5.55.92-2.33,1.86-5.34,2.65-7.71-1.08,3.26-2.01,7.3-3.53,10.29-1.41,2.77-2.65,5.62-3.93,8.46s-2.73,5.93-3.77,8.97c-1.71,5.01-.79,11.21,2.69,15.32,3.03,3.59,7.71,5.2,12.28,5.56.6.05,1.2.08,1.8.08,20.23.11,38.92-7.84,57.99-13.64,0,0-.27-1.39-.27-1.39-13.14,7.99-28.86,13.12-39.37,25.03-3.07,3.5-5.77,7.54-6.34,12.35-1.33,17.21,29.86,14.32,41.01,15.45,0,0,0,0,0,0l-.15-2.76s0,0-.01,0c-13.69,2.53-28.76,3.93-40.65,12.21-9.87,6.5-14.65,16.9-2.58,24.22,12.65,7.04,27.89,5.84,41.34,9.34,0,0,.01,0,.01,0,0-.1.11-2.12.12-2.22,0,0,0,0-.01,0-11.19,1.52-23.5.55-33.74,6.38-9.96,4.97-20.16,17.79-13.43,28.98,3.38,5.1,9.49,7.08,15.12,8.33,5.64,1.15,11.26,2.11,16.89,3.17,0,0,0,0,0,0l12.34.95-12.17-1.79Z"/>
        </g>
        <g>
          <path class="cls-19" d="m1503.03,743.92c-2.43,6.93-6.94,12.35-10.74,18.63-3.79,6.28-9.08,11.9-15.81,14.81-9.01,3.91-19.58,2.53-28.64-1.26-5.69-2.39-11.07-5.75-15.13-10.4-4.05-4.66-7.69-11.12-7.58-17.29"/>
          <path class="cls-4" d="m1503.03,743.92c-2.74,6.43-7.3,11.69-11.12,17.48-3.58,5.65-8.27,10.89-14.24,13.9-12.17,6.1-27.07,2.09-38.04-4.91-7.25-4.93-13.73-12.9-14.5-21.96-.42,7.13,3.36,13.8,7.92,19.04,10.87,11.57,31.21,18.03,45.87,10.22,6.33-3.41,11.15-9.11,14.57-15.31,3.43-5.97,7.68-11.72,9.54-18.45h0Z"/>
        </g>
      </g>
    </g>
  </g>
</svg>